<svg width="31" height="31" viewBox="0 0 31 31" fill="none" xmlns="http://www.w3.org/2000/svg">
<path d="M13.2365 17.8467L17.4989 15.3738L13.2365 12.8887V17.8467Z" fill="white"/>
<path d="M15.3676 0C12.3282 0 9.35702 0.901295 6.82983 2.58991C4.30264 4.27852 2.33293 6.67862 1.1698 9.48668C0.00665851 12.2947 -0.297671 15.3847 0.295291 18.3657C0.888254 21.3467 2.35188 24.085 4.50108 26.2342C6.65027 28.3834 9.38852 29.847 12.3695 30.4399C15.3506 31.0329 18.4405 30.7286 21.2485 29.5654C24.0566 28.4023 26.4567 26.4326 28.1453 23.9054C29.8339 21.3782 30.7352 18.407 30.7352 15.3676C30.7352 11.2919 29.1161 7.38305 26.2342 4.50107C23.3522 1.61908 19.4434 0 15.3676 0ZM23.4558 18.0873C23.4561 18.4892 23.3772 18.8873 23.2235 19.2587C23.0699 19.6301 22.8446 19.9676 22.5605 20.2519C22.2764 20.5362 21.939 20.7617 21.5677 20.9156C21.1964 21.0695 20.7984 21.1487 20.3965 21.1487H10.3388C9.93684 21.1487 9.53884 21.0695 9.16753 20.9156C8.79622 20.7617 8.45887 20.5362 8.17475 20.2519C7.89064 19.9676 7.66533 19.6301 7.5117 19.2587C7.35807 18.8873 7.27914 18.4892 7.2794 18.0873V12.6479C7.27914 12.246 7.35807 11.848 7.5117 11.4766C7.66533 11.1051 7.89064 10.7676 8.17475 10.4833C8.45887 10.199 8.79622 9.97351 9.16753 9.81963C9.53884 9.66576 9.93684 9.58656 10.3388 9.58656H20.3965C20.7984 9.58656 21.1964 9.66576 21.5677 9.81963C21.939 9.97351 22.2764 10.199 22.5605 10.4833C22.8446 10.7676 23.0699 11.1051 23.2235 11.4766C23.3772 11.848 23.4561 12.246 23.4558 12.6479V18.0873Z" fill="white"/>
</svg>
