<svg width="21" height="21" viewBox="0 0 21 21" fill="none" xmlns="http://www.w3.org/2000/svg">
<path d="M0.78125 1.16699H2.69409L5.23817 13.0993C5.3315 13.5363 5.57356 13.927 5.92269 14.204C6.27182 14.4811 6.70618 14.6272 7.15101 14.6173H16.5048C16.9401 14.6166 17.3622 14.4667 17.7013 14.1925C18.0404 13.9182 18.2762 13.536 18.3698 13.1089L19.9479 5.97067H3.71746M7.42837 19.3729C7.42837 19.9035 7.00017 20.3337 6.47195 20.3337C5.94373 20.3337 5.51553 19.9035 5.51553 19.3729C5.51553 18.8423 5.94373 18.4122 6.47195 18.4122C7.00017 18.4122 7.42837 18.8423 7.42837 19.3729ZM17.949 19.3729C17.949 19.9035 17.5208 20.3337 16.9926 20.3337C16.4644 20.3337 16.0362 19.9035 16.0362 19.3729C16.0362 18.8423 16.4644 18.4122 16.9926 18.4122C17.5208 18.4122 17.949 18.8423 17.949 19.3729Z" stroke="black" stroke-linecap="round" stroke-linejoin="round"/>
</svg>
