<svg width="31" height="30" viewBox="0 0 31 30" fill="none" xmlns="http://www.w3.org/2000/svg">
<path d="M15.5 0C6.9409 0 0 6.717 0 15C0 23.283 6.9409 30 15.5 30C24.0591 30 31 23.283 31 15C31 6.717 24.0591 0 15.5 0ZM10.9959 22.6758H7.22092V11.6851H10.9959V22.6758ZM9.10852 10.1843H9.08392C7.81717 10.1843 6.99789 9.34044 6.99789 8.28575C6.99789 7.20726 7.84224 6.38672 9.13359 6.38672C10.4249 6.38672 11.2196 7.20726 11.2442 8.28575C11.2442 9.34044 10.4249 10.1843 9.10852 10.1843ZM24.6076 22.6758H20.8331V16.796C20.8331 15.3184 20.2865 14.3106 18.9207 14.3106C17.8779 14.3106 17.2568 14.9904 16.9839 15.6466C16.8841 15.8814 16.8597 16.2096 16.8597 16.5381V22.6758H13.085C13.085 22.6758 13.1344 12.7162 13.085 11.6851H16.8597V13.2413C17.3613 12.4924 18.2589 11.4272 20.2617 11.4272C22.7453 11.4272 24.6076 12.998 24.6076 16.3737V22.6758Z" fill="white"/>
</svg>
