<svg width="30" height="30" viewBox="0 0 30 30" fill="none" xmlns="http://www.w3.org/2000/svg">
<path fill-rule="evenodd" clip-rule="evenodd" d="M15 0C17.7938 0.0318806 20.3177 0.718511 22.5717 2.05989C24.7989 3.37449 26.6515 5.23849 27.9525 7.47362C29.2857 9.74124 29.9682 12.2804 30 15.0912C29.9208 18.9371 28.7078 22.2218 26.361 24.9454C24.0141 27.6691 21.0084 29.3541 17.8968 30V19.2174H20.8385L21.5038 14.9801H17.0494V12.2048C17.0247 11.6295 17.2066 11.0643 17.5623 10.6114C17.9186 10.1573 18.5459 9.91862 19.4443 9.89537H22.1341V6.18359C22.0955 6.17118 21.7293 6.12207 21.0355 6.03628C20.2486 5.94421 19.4572 5.89504 18.665 5.88897C16.8719 5.89724 15.4538 6.40304 14.4107 7.40637C13.3676 8.40942 12.8347 9.86061 12.8121 11.7599V14.9801H9.42229V19.2174H12.8121V30C8.99161 29.3541 5.98585 27.6691 3.639 24.9454C1.29214 22.2218 0.0791889 18.9371 0 15.0912C0.0316828 12.2803 0.714161 9.74111 2.04743 7.47362C3.34845 5.23849 5.20112 3.37449 7.42829 2.05989C9.68226 0.718769 12.2062 0.0321389 15 0Z" fill="white"/>
</svg>
