<svg width="31" height="31" viewBox="0 0 31 31" fill="none" xmlns="http://www.w3.org/2000/svg">
<path d="M15.3676 18.5945C17.1499 18.5945 18.5948 17.1497 18.5948 15.3673C18.5948 13.585 17.1499 12.1401 15.3676 12.1401C13.5852 12.1401 12.1404 13.585 12.1404 15.3673C12.1404 17.1497 13.5852 18.5945 15.3676 18.5945Z" fill="white"/>
<path d="M15.3676 0C6.88033 0 0 6.88033 0 15.3676C0 23.8549 6.88033 30.7352 15.3676 30.7352C23.8549 30.7352 30.7352 23.8549 30.7352 15.3676C30.7352 6.88033 23.8549 0 15.3676 0ZM24.8622 19.2734C24.7885 20.7345 24.3779 22.1752 23.3132 23.2286C22.2381 24.2921 20.7905 24.6883 19.3154 24.7613H11.4199C9.94457 24.6883 8.49718 24.2923 7.42213 23.2286C6.35734 22.1752 5.94684 20.7345 5.87307 19.2734V11.4618C5.94684 10.0008 6.3574 8.56001 7.42213 7.50653C8.49718 6.44309 9.94475 6.04685 11.4199 5.97388H19.3154C20.7907 6.04685 22.238 6.4429 23.3131 7.50653C24.3779 8.56001 24.7884 10.0008 24.8622 11.4618L24.8622 19.2734Z" fill="white"/>
<path d="M19.2157 7.75391C17.2925 7.70117 13.4432 7.70117 11.5201 7.75391C10.5193 7.78139 9.3847 8.03053 8.67164 8.79215C7.93068 9.58383 7.65068 10.5403 7.62228 11.6103C7.57237 13.4884 7.62228 19.1252 7.62228 19.1252C7.6548 20.1951 7.93068 21.1517 8.67164 21.9434C9.3847 22.7052 10.5193 22.9541 11.5201 22.9816C13.4432 23.0344 17.2925 23.0344 19.2157 22.9816C20.2165 22.9541 21.351 22.705 22.0641 21.9434C22.8051 21.1517 23.0851 20.1952 23.1135 19.1252V11.6103C23.0851 10.5403 22.8051 9.58383 22.0641 8.79215C21.3508 8.03028 20.2162 7.78139 19.2157 7.75391ZM15.3676 20.3699C14.3783 20.3699 13.4112 20.0766 12.5886 19.5269C11.766 18.9773 11.1248 18.196 10.7462 17.282C10.3676 16.368 10.2686 15.3622 10.4616 14.3919C10.6546 13.4216 11.131 12.5303 11.8306 11.8307C12.5301 11.1311 13.4214 10.6547 14.3917 10.4617C15.3621 10.2687 16.3678 10.3678 17.2819 10.7464C18.1959 11.125 18.9771 11.7661 19.5268 12.5887C20.0764 13.4113 20.3698 14.3784 20.3698 15.3678C20.3698 16.6944 19.8428 17.9667 18.9047 18.9048C17.9666 19.8429 16.6943 20.3699 15.3676 20.3699ZM20.3911 11.3981C20.1932 11.3981 19.9998 11.3394 19.8353 11.2294C19.6708 11.1194 19.5426 10.9632 19.4669 10.7804C19.3913 10.5976 19.3715 10.3964 19.4101 10.2024C19.4487 10.0083 19.544 9.83008 19.684 9.6902C19.8239 9.55031 20.0022 9.45505 20.1962 9.41647C20.3903 9.37789 20.5914 9.39771 20.7742 9.47344C20.957 9.54917 21.1132 9.6774 21.2231 9.84191C21.3331 10.0064 21.3917 10.1998 21.3917 10.3977C21.3917 10.5291 21.3658 10.6592 21.3155 10.7806C21.2653 10.902 21.1915 11.0123 21.0986 11.1052C21.0057 11.1981 20.8954 11.2718 20.774 11.322C20.6526 11.3723 20.5224 11.3982 20.3911 11.3981Z" fill="white"/>
</svg>
