<svg width="51" height="51" viewBox="0 0 51 51" fill="none" xmlns="http://www.w3.org/2000/svg">
<path d="M25.5 0.999998C11.969 0.999997 1 11.969 0.999998 25.5C0.999997 39.031 11.969 50 25.5 50C39.031 50 50 39.031 50 25.5C50 11.969 39.031 0.999999 25.5 0.999998Z" fill="white"/>
<path d="M15.7 25.5L35.3 25.5L15.7 25.5Z" fill="white"/>
<path d="M25.5 35.3L35.3 25.5L25.5 15.7" fill="white"/>
<path d="M15.7 25.5L35.3 25.5M35.3 25.5L25.5 35.3M35.3 25.5L25.5 15.7M0.999999 25.5C1 11.969 11.969 0.999998 25.5 1C39.031 1 50 11.969 50 25.5C50 39.031 39.031 50 25.5 50C11.969 50 0.999998 39.031 0.999999 25.5Z" stroke="black" stroke-linecap="round" stroke-linejoin="round"/>
</svg>
