<svg width="51" height="51" viewBox="0 0 51 51" fill="none" xmlns="http://www.w3.org/2000/svg">
<path d="M25.5 50C39.031 50 50 39.031 50 25.5C50 11.969 39.031 1 25.5 1C11.969 1 1 11.969 1 25.5C1 39.031 11.969 50 25.5 50Z" fill="white"/>
<path d="M35.3 25.5H15.7H35.3Z" fill="white"/>
<path d="M25.5 15.7L15.7 25.5L25.5 35.3" fill="white"/>
<path d="M35.3 25.5H15.7M15.7 25.5L25.5 15.7M15.7 25.5L25.5 35.3M50 25.5C50 39.031 39.031 50 25.5 50C11.969 50 1 39.031 1 25.5C1 11.969 11.969 1 25.5 1C39.031 1 50 11.969 50 25.5Z" stroke="black" stroke-linecap="round" stroke-linejoin="round"/>
</svg>
